<?xml version="1.0" standalone="no"?><!DOCTYPE svg PUBLIC "-//W3C//DTD SVG 1.1//EN" "http://www.w3.org/Graphics/SVG/1.1/DTD/svg11.dtd"><svg t="1668068067897" class="icon" viewBox="0 0 1024 1024" version="1.1" xmlns="http://www.w3.org/2000/svg" p-id="1534" xmlns:xlink="http://www.w3.org/1999/xlink" width="200" height="200"><path d="M341.248 85.930667c-108.885333 0-170.666667 61.738667-170.666667 170.538666v639.402667c0 30.634667 30.506667 52.053333 58.666667 39.978667l282.666667-121.216 281.344 121.216c28.16 12.074667 59.989333-9.386667 59.989333-39.978667V256.469333c0-111.829333-55.68-170.538667-170.666667-170.538666h-341.333333z m0 85.248h341.333333c66.816 0 85.333333 19.541333 85.333334 85.290666v575.488l-240-102.570666a41.984 41.984 0 0 0-33.322667 0l-238.677333 102.570666V256.426667c0-61.738667 23.552-85.290667 85.333333-85.290667z" fill="#000000" p-id="1535"></path></svg>